<?xml version="1.0" standalone="no"?>
<!DOCTYPE svg PUBLIC "-//W3C//DTD SVG 20010904//EN"
 "http://www.w3.org/TR/2001/REC-SVG-20010904/DTD/svg10.dtd">
<svg version="1.0" xmlns="http://www.w3.org/2000/svg"
 width="400.000000pt" height="400.000000pt" viewBox="0 0 400.000000 400.000000"
 preserveAspectRatio="xMidYMid meet">
<metadata>
Created by potrace 1.11, written by Peter Selinger 2001-2013
</metadata>
<g transform="translate(0.000000,400.000000) scale(0.100000,-0.100000)"
fill="#000000" stroke="none">
<path d="M1799 2995 c-269 -44 -485 -134 -676 -282 -105 -81 -172 -164 -228
-278 -99 -204 -130 -346 -130 -590 0 -159 3 -189 24 -260 60 -205 192 -388
381 -527 74 -54 177 -117 214 -131 17 -7 18 -16 12 -105 -3 -53 -9 -205 -12
-338 -6 -217 -5 -241 10 -247 40 -16 43 -4 50 211 3 114 9 271 12 349 5 107 4
146 -6 158 -6 8 -49 35 -95 60 -276 150 -463 382 -516 639 -67 325 56 775 264
962 279 251 733 379 1132 319 286 -43 552 -175 720 -357 159 -171 199 -297
199 -623 1 -266 -36 -435 -124 -570 -48 -73 -165 -189 -272 -269 -43 -32 -78
-64 -78 -72 0 -7 16 -68 35 -135 65 -229 88 -356 111 -602 6 -67 6 -68 32 -65
l27 3 -2 90 c-5 165 -48 398 -114 614 -10 35 -19 67 -19 71 0 4 39 39 88 78
100 80 211 194 253 260 39 62 77 164 100 274 37 172 35 510 -3 668 -73 301
-412 578 -826 677 -90 21 -137 26 -292 29 -127 2 -212 -1 -271 -11z"/>
<path d="M1172 2441 c-121 -36 -172 -101 -172 -216 1 -184 114 -245 430 -233
126 5 196 28 253 82 86 84 73 245 -26 317 -63 46 -126 60 -282 65 -116 3 -151
1 -203 -15z m307 -52 c36 -7 78 -17 94 -24 l29 -12 -47 -6 c-62 -9 -102 -39
-116 -88 -24 -79 20 -149 107 -167 l39 -8 -35 -13 c-85 -32 -338 -22 -417 16
-66 31 -95 151 -53 220 46 76 222 112 399 82z"/>
<path d="M2253 2429 c-180 -69 -187 -294 -13 -381 75 -37 133 -49 282 -55 142
-6 226 5 298 42 54 27 74 48 95 98 44 106 -14 218 -140 272 -72 30 -182 45
-328 44 -117 0 -151 -4 -194 -20z m427 -60 c25 -7 46 -13 48 -14 1 -1 -16 -21
-39 -44 -45 -48 -59 -77 -59 -124 0 -39 31 -93 59 -102 70 -22 -32 -40 -173
-31 -125 8 -201 25 -260 60 -123 72 -100 223 41 262 58 17 313 12 383 -7z"/>
<path d="M1920 1824 c-40 -23 -49 -24 -81 -15 -65 20 -114 14 -147 -17 -78
-73 -50 -212 56 -286 109 -74 210 -60 315 46 91 93 101 184 26 259 -33 33 -45
39 -81 39 -28 0 -59 -10 -88 -26z m112 -45 c27 -14 47 -67 41 -104 -11 -55
-132 -155 -188 -155 -58 0 -140 61 -165 121 -14 34 -6 92 16 110 12 10 27 10
80 -3 l66 -16 51 29 c58 31 70 34 99 18z"/>
</g>
</svg>
